<svg width="216" height="88" viewBox="0 0 216 88" fill="none" xmlns="http://www.w3.org/2000/svg">
<g filter="url(#filter0_d_401_188)">
<rect x="23" y="23" width="170" height="42" rx="21" fill="url(#paint0_linear_401_188)"/>
</g>
<path d="M88.9254 50.1017V38.9017H93.7414C94.9574 38.9017 95.9121 39.147 96.6054 39.6377C97.2988 40.1284 97.6454 40.843 97.6454 41.7817C97.6454 42.699 97.3148 43.403 96.6534 43.8937C95.9921 44.3737 95.1228 44.6137 94.0454 44.6137L94.3334 44.1337C95.5814 44.1337 96.5361 44.3844 97.1974 44.8857C97.8694 45.3764 98.2054 46.0964 98.2054 47.0457C98.2054 48.0057 97.8534 48.7577 97.1494 49.3017C96.4561 49.835 95.4214 50.1017 94.0454 50.1017H88.9254ZM90.5094 48.8377H94.0134C94.8668 48.8377 95.5068 48.683 95.9334 48.3737C96.3708 48.0537 96.5894 47.5684 96.5894 46.9177C96.5894 46.267 96.3708 45.7924 95.9334 45.4937C95.5068 45.195 94.8668 45.0457 94.0134 45.0457H90.5094V48.8377ZM90.5094 43.8297H93.6294C94.4081 43.8297 95.0001 43.675 95.4054 43.3657C95.8214 43.0564 96.0294 42.603 96.0294 42.0057C96.0294 41.3977 95.8214 40.939 95.4054 40.6297C95.0001 40.3204 94.4081 40.1657 93.6294 40.1657H90.5094V43.8297ZM99.2786 50.1017L102.927 45.3657L102.911 46.1497L99.4386 41.6217H101.151L103.807 45.1097H103.151L105.807 41.6217H107.487L103.967 46.1817L103.983 45.3657L107.663 50.1017H105.919L103.119 46.3897L103.743 46.4857L100.991 50.1017H99.2786ZM112.63 50.1977C111.776 50.1977 111.019 50.011 110.358 49.6377C109.696 49.2644 109.174 48.7524 108.79 48.1017C108.406 47.4404 108.214 46.6937 108.214 45.8617C108.214 45.019 108.406 44.2724 108.79 43.6217C109.174 42.971 109.696 42.4644 110.358 42.1017C111.019 41.7284 111.776 41.5417 112.63 41.5417C113.472 41.5417 114.224 41.7284 114.886 42.1017C115.558 42.4644 116.08 42.971 116.454 43.6217C116.838 44.2617 117.03 45.0084 117.03 45.8617C117.03 46.7044 116.838 47.451 116.454 48.1017C116.08 48.7524 115.558 49.2644 114.886 49.6377C114.224 50.011 113.472 50.1977 112.63 50.1977ZM112.63 48.8537C113.174 48.8537 113.659 48.731 114.086 48.4857C114.523 48.2404 114.864 47.8937 115.11 47.4457C115.355 46.987 115.478 46.459 115.478 45.8617C115.478 45.2537 115.355 44.731 115.11 44.2937C114.864 43.8457 114.523 43.499 114.086 43.2537C113.659 43.0084 113.174 42.8857 112.63 42.8857C112.086 42.8857 111.6 43.0084 111.174 43.2537C110.747 43.499 110.406 43.8457 110.15 44.2937C109.894 44.731 109.766 45.2537 109.766 45.8617C109.766 46.459 109.894 46.987 110.15 47.4457C110.406 47.8937 110.747 48.2404 111.174 48.4857C111.6 48.731 112.086 48.8537 112.63 48.8537ZM124.977 49.3817V42.9657H121.297L121.217 44.5977C121.196 45.131 121.158 45.6484 121.105 46.1497C121.062 46.6404 120.988 47.0937 120.881 47.5097C120.785 47.9257 120.641 48.267 120.449 48.5337C120.257 48.8004 120.001 48.9657 119.681 49.0297L118.161 48.7577C118.492 48.7684 118.758 48.6617 118.961 48.4377C119.164 48.203 119.318 47.883 119.425 47.4777C119.542 47.0724 119.628 46.6137 119.681 46.1017C119.734 45.579 119.777 45.0404 119.809 44.4857L119.937 41.6217H126.513V49.3817H124.977ZM117.825 52.0697V48.7577H127.809V52.0697H126.369V50.1017H119.281V52.0697H117.825Z" fill="#E7FFFF"/>
<defs>
<filter id="filter0_d_401_188" x="0" y="0" width="216" height="88" filterUnits="userSpaceOnUse" color-interpolation-filters="sRGB">
<feFlood flood-opacity="0" result="BackgroundImageFix"/>
<feColorMatrix in="SourceAlpha" type="matrix" values="0 0 0 0 0 0 0 0 0 0 0 0 0 0 0 0 0 0 127 0" result="hardAlpha"/>
<feMorphology radius="10" operator="dilate" in="SourceAlpha" result="effect1_dropShadow_401_188"/>
<feOffset/>
<feGaussianBlur stdDeviation="6.5"/>
<feComposite in2="hardAlpha" operator="out"/>
<feColorMatrix type="matrix" values="0 0 0 0 0.995833 0 0 0 0 0.9995 0 0 0 0 1 0 0 0 0.9 0"/>
<feBlend mode="normal" in2="BackgroundImageFix" result="effect1_dropShadow_401_188"/>
<feBlend mode="normal" in="SourceGraphic" in2="effect1_dropShadow_401_188" result="shape"/>
</filter>
<linearGradient id="paint0_linear_401_188" x1="193" y1="44" x2="23" y2="44" gradientUnits="userSpaceOnUse">
<stop stop-color="#01BDCD"/>
<stop offset="1" stop-color="#7ADCDC"/>
</linearGradient>
</defs>
</svg>
