<svg width="147" height="116" viewBox="0 0 147 116" fill="none" xmlns="http://www.w3.org/2000/svg">
<g filter="url(#filter0_d_468_12)">
<rect x="27" y="27" width="93" height="62" rx="7" fill="#EAEBF0" shape-rendering="crispEdges"/>
<rect x="25" y="25" width="97" height="66" rx="9" stroke="#33BD6A" stroke-opacity="0.48" stroke-width="4" shape-rendering="crispEdges"/>
</g>
<path d="M31.5 42C31.5 40.067 33.067 38.5 35 38.5H67C68.933 38.5 70.5 40.067 70.5 42V74C70.5 75.933 68.933 77.5 67 77.5H35C33.067 77.5 31.5 75.933 31.5 74V42Z" fill="white" stroke="#BEBEC0"/>
<path d="M82 45C82.4 45.4 99.5 62.5 108 71" stroke="#929BAB" stroke-width="4" stroke-linecap="round"/>
<path d="M108 45L82.0626 70.9374L82 71" stroke="#929BAB" stroke-width="4" stroke-linecap="round"/>
<defs>
<filter id="filter0_d_468_12" x="0" y="0" width="147" height="116" filterUnits="userSpaceOnUse" color-interpolation-filters="sRGB">
<feFlood flood-opacity="0" result="BackgroundImageFix"/>
<feColorMatrix in="SourceAlpha" type="matrix" values="0 0 0 0 0 0 0 0 0 0 0 0 0 0 0 0 0 0 127 0" result="hardAlpha"/>
<feMorphology radius="8" operator="dilate" in="SourceAlpha" result="effect1_dropShadow_468_12"/>
<feOffset/>
<feGaussianBlur stdDeviation="7.5"/>
<feComposite in2="hardAlpha" operator="out"/>
<feColorMatrix type="matrix" values="0 0 0 0 0.995833 0 0 0 0 0.9995 0 0 0 0 1 0 0 0 0.9 0"/>
<feBlend mode="normal" in2="BackgroundImageFix" result="effect1_dropShadow_468_12"/>
<feBlend mode="normal" in="SourceGraphic" in2="effect1_dropShadow_468_12" result="shape"/>
</filter>
</defs>
</svg>
