<svg width="139" height="108" viewBox="0 0 139 108" fill="none" xmlns="http://www.w3.org/2000/svg">
<g filter="url(#filter0_d_405_10)">
<rect x="23" y="23" width="93" height="62" rx="7" fill="#EAEBF0"/>
<rect x="23.5" y="23.5" width="92" height="61" rx="6.5" stroke="black" stroke-opacity="0.15"/>
</g>
<path d="M27.5 38C27.5 36.067 29.067 34.5 31 34.5H63C64.933 34.5 66.5 36.067 66.5 38V70C66.5 71.933 64.933 73.5 63 73.5H31C29.067 73.5 27.5 71.933 27.5 70V38Z" fill="white" stroke="#BEBEC0"/>
<path d="M78 41C78.4 41.4 95.5 58.5 104 67" stroke="#929BAB" stroke-width="4" stroke-linecap="round"/>
<path d="M104 41L78.0626 66.9374L78 67" stroke="#929BAB" stroke-width="4" stroke-linecap="round"/>
<defs>
<filter id="filter0_d_405_10" x="0" y="0" width="139" height="108" filterUnits="userSpaceOnUse" color-interpolation-filters="sRGB">
<feFlood flood-opacity="0" result="BackgroundImageFix"/>
<feColorMatrix in="SourceAlpha" type="matrix" values="0 0 0 0 0 0 0 0 0 0 0 0 0 0 0 0 0 0 127 0" result="hardAlpha"/>
<feMorphology radius="8" operator="dilate" in="SourceAlpha" result="effect1_dropShadow_405_10"/>
<feOffset/>
<feGaussianBlur stdDeviation="7.5"/>
<feComposite in2="hardAlpha" operator="out"/>
<feColorMatrix type="matrix" values="0 0 0 0 0.995833 0 0 0 0 0.9995 0 0 0 0 1 0 0 0 0.9 0"/>
<feBlend mode="normal" in2="BackgroundImageFix" result="effect1_dropShadow_405_10"/>
<feBlend mode="normal" in="SourceGraphic" in2="effect1_dropShadow_405_10" result="shape"/>
</filter>
</defs>
</svg>
